  <svg fill="currentColor" viewBox="0 0 16 16"  xmlns="http://www.w3.org/2000/svg" >
    <path d="M2.68557 4.19919L6.60375 8.01531L2.68558 11.9437C2.30468 12.3255 2.30468 12.9602 2.68558 13.342C2.81704 13.4738 3.07001 13.6 3.32633 13.6C3.5823 13.6 3.83547 13.4736 3.96708 13.342L7.99891 9.41203L11.9187 13.342C12.0502 13.4738 12.3032 13.6 12.5595 13.6C12.8158 13.6 13.0688 13.4738 13.2002 13.342C13.581 12.9603 13.5806 12.3256 13.2002 11.9437L9.39402 8.01529L13.3142 4.0849C13.6951 3.70301 13.6951 3.06841 13.3142 2.68652C12.9332 2.30449 12.2998 2.30449 11.9187 2.68652L7.99889 6.61655L4.08054 2.80028C3.69944 2.41877 3.06645 2.41895 2.68558 2.8008C2.30468 3.18269 2.30467 3.8173 2.68557 4.19919Z" />
  </svg>