<svg viewBox="0 0 16 16" fill="currentColor" xmlns="http://www.w3.org/2000/svg">
  <path fill-rule="evenodd" clip-rule="evenodd" d="M4.67908 4.907C3.49137 4.907 2.53293 5.14155 1.88374 5.79074C1.23455 6.43993 1 7.39837 1 8.58608V11.321C1 12.5087 1.23455 13.4671 1.88374 14.1163C2.53293 14.7655 3.49137 15 4.67908 15H7.41397C8.60168 15 9.56012 14.7655 10.2093 14.1163C10.8585 13.4671 11.093 12.5087 11.093 11.321V11.093H11.321C12.5087 11.093 13.4671 10.8585 14.1163 10.2093C14.7655 9.56012 15 8.60168 15 7.41397V4.67908C15 3.49137 14.7655 2.53293 14.1163 1.88374C13.4671 1.23455 12.5087 1 11.321 1H8.58606C7.39836 1 6.43991 1.23455 5.79072 1.88374C5.14153 2.53293 4.90698 3.49137 4.90698 4.67908V4.907H4.67908ZM6.48139 2.5744C6.10499 2.9508 5.88373 3.58771 5.88373 4.67908V4.90699L7.41397 4.907C8.60168 4.907 9.56012 5.14155 10.2093 5.79074C10.8585 6.43993 11.093 7.39837 11.093 8.58608L11.093 10.1163H11.321C12.4123 10.1163 13.0492 9.89504 13.4256 9.51864C13.802 9.14225 14.0233 8.50534 14.0233 7.41397V4.67908C14.0233 3.58771 13.802 2.9508 13.4256 2.5744C13.0492 2.19801 12.4123 1.97675 11.321 1.97675H8.58606C7.49469 1.97675 6.85778 2.19801 6.48139 2.5744ZM10.1163 10.6066L10.1163 10.6047L10.1163 8.58608C10.1163 7.49471 9.89504 6.8578 9.51864 6.4814C9.14225 6.10501 8.50534 5.88374 7.41397 5.88374H4.67908C3.58771 5.88374 2.9508 6.10501 2.5744 6.4814C2.19801 6.8578 1.97675 7.49471 1.97675 8.58608V11.321C1.97675 12.4123 2.19801 13.0492 2.5744 13.4256C2.9508 13.802 3.58771 14.0233 4.67908 14.0233H7.41397C8.50534 14.0233 9.14225 13.802 9.51864 13.4256C9.89504 13.0492 10.1163 12.4123 10.1163 11.321V10.6066Z" />
</svg>
